<svg width="218" height="67" viewBox="0 0 218 67" fill="none" xmlns="http://www.w3.org/2000/svg">
<path d="M16.884 25.2257V27H3.16055V7.5931H16.4681V9.36745H5.21214V16.2708H15.2483V18.0174H5.21214V25.2257H16.884ZM33.6337 27L27.3681 18.461L21.1301 27H18.7736L26.1482 17.0193L19.2449 7.5931H21.6014L27.4512 15.5222L33.2733 7.5931H35.4912L28.6156 16.9639L36.018 27H33.6337ZM46.2437 7.5931C48.7203 7.5931 50.661 8.18455 52.0657 9.36745C53.4704 10.5503 54.1728 12.1768 54.1728 14.2469C54.1728 16.317 53.4704 17.9434 52.0657 19.1263C50.661 20.2908 48.7203 20.873 46.2437 20.873H41.0315V27H38.9799V7.5931H46.2437ZM46.1882 19.0709C48.1104 19.0709 49.5798 18.655 50.5963 17.8233C51.6129 16.9731 52.1212 15.781 52.1212 14.2469C52.1212 12.6759 51.6129 11.4745 50.5963 10.6428C49.5798 9.79255 48.1104 9.36745 46.1882 9.36745H41.0315V19.0709H46.1882ZM58.6088 7.5931H60.6604V25.2257H71.5283V27H58.6088V7.5931ZM83.0392 27.1663C81.117 27.1663 79.3704 26.7412 77.7994 25.891C76.2468 25.0223 75.0269 23.8394 74.1398 22.3423C73.2711 20.8452 72.8367 19.1633 72.8367 17.2966C72.8367 15.4298 73.2711 13.7479 74.1398 12.2508C75.0269 10.7537 76.2468 9.58 77.7994 8.72979C79.3704 7.8611 81.117 7.42676 83.0392 7.42676C84.9614 7.42676 86.6896 7.85186 88.2236 8.70207C89.7762 9.55227 90.996 10.7352 91.8832 12.2508C92.7704 13.7479 93.214 15.4298 93.214 17.2966C93.214 19.1633 92.7704 20.8545 91.8832 22.3701C90.996 23.8672 89.7762 25.0408 88.2236 25.891C86.6896 26.7412 84.9614 27.1663 83.0392 27.1663ZM83.0392 25.3366C84.5733 25.3366 85.9595 24.9946 87.1978 24.3108C88.4362 23.6084 89.4065 22.6473 90.1089 21.4274C90.8112 20.1891 91.1624 18.8121 91.1624 17.2966C91.1624 15.781 90.8112 14.4132 90.1089 13.1934C89.4065 11.955 88.4362 10.9939 87.1978 10.3101C85.9595 9.60772 84.5733 9.25655 83.0392 9.25655C81.5052 9.25655 80.1097 9.60772 78.8529 10.3101C77.6145 10.9939 76.6349 11.955 75.9141 13.1934C75.2118 14.4132 74.8606 15.781 74.8606 17.2966C74.8606 18.8121 75.2118 20.1891 75.9141 21.4274C76.6349 22.6473 77.6145 23.6084 78.8529 24.3108C80.1097 24.9946 81.5052 25.3366 83.0392 25.3366ZM111.065 27L106.629 20.7621C106.13 20.8175 105.612 20.8452 105.076 20.8452H99.8641V27H97.8125V7.5931H105.076C107.553 7.5931 109.494 8.18455 110.898 9.36745C112.303 10.5503 113.005 12.1768 113.005 14.2469C113.005 15.7625 112.617 17.047 111.841 18.1006C111.083 19.1356 109.993 19.8841 108.569 20.3462L113.31 27H111.065ZM105.021 19.0986C106.943 19.0986 108.412 18.6735 109.429 17.8233C110.445 16.9731 110.954 15.781 110.954 14.2469C110.954 12.6759 110.445 11.4745 109.429 10.6428C108.412 9.79255 106.943 9.36745 105.021 9.36745H99.8641V19.0986H105.021ZM131.571 25.2257V27H117.848V7.5931H131.155V9.36745H119.899V16.2708H129.935V18.0174H119.899V25.2257H131.571ZM15.3869 50.9916C16.6622 51.2688 17.6418 51.8233 18.3257 52.655C19.028 53.4683 19.3792 54.5218 19.3792 55.8156C19.3792 57.479 18.76 58.7636 17.5217 59.6692C16.3018 60.5564 14.4905 61 12.0877 61H3.16055V41.5931H11.5332C13.6957 41.5931 15.3684 42.0274 16.5513 42.8961C17.7527 43.7648 18.3534 44.9939 18.3534 46.5834C18.3534 47.6554 18.0854 48.5703 17.5494 49.3281C17.0319 50.0674 16.311 50.6219 15.3869 50.9916ZM5.21214 43.2843V50.3262H11.3946C12.9657 50.3262 14.1763 50.0305 15.0265 49.439C15.8767 48.8291 16.3018 47.9512 16.3018 46.8052C16.3018 45.6593 15.8767 44.7906 15.0265 44.1992C14.1763 43.5892 12.9657 43.2843 11.3946 43.2843H5.21214ZM12.06 59.3088C13.7974 59.3088 15.1097 59.0131 15.9968 58.4217C16.884 57.8302 17.3276 56.9061 17.3276 55.6492C17.3276 53.228 15.5717 52.0174 12.06 52.0174H5.21214V59.3088H12.06ZM32.5455 61.1663C30.6233 61.1663 28.8767 60.7412 27.3057 59.891C25.7531 59.0223 24.5333 57.8394 23.6461 56.3423C22.7774 54.8452 22.3431 53.1633 22.3431 51.2966C22.3431 49.4298 22.7774 47.7479 23.6461 46.2508C24.5333 44.7537 25.7531 43.58 27.3057 42.7298C28.8767 41.8611 30.6233 41.4268 32.5455 41.4268C34.4678 41.4268 36.1959 41.8519 37.73 42.7021C39.2825 43.5523 40.5024 44.7352 41.3895 46.2508C42.2767 47.7479 42.7203 49.4298 42.7203 51.2966C42.7203 53.1633 42.2767 54.8545 41.3895 56.3701C40.5024 57.8672 39.2825 59.0408 37.73 59.891C36.1959 60.7412 34.4678 61.1663 32.5455 61.1663ZM32.5455 59.3366C34.0796 59.3366 35.4658 58.9946 36.7042 58.3108C37.9425 57.6084 38.9129 56.6473 39.6152 55.4274C40.3175 54.1891 40.6687 52.8121 40.6687 51.2966C40.6687 49.781 40.3175 48.4132 39.6152 47.1934C38.9129 45.955 37.9425 44.9939 36.7042 44.3101C35.4658 43.6077 34.0796 43.2565 32.5455 43.2565C31.0115 43.2565 29.616 43.6077 28.3592 44.3101C27.1209 44.9939 26.1413 45.955 25.4204 47.1934C24.7181 48.4132 24.3669 49.781 24.3669 51.2966C24.3669 52.8121 24.7181 54.1891 25.4204 55.4274C26.1413 56.6473 27.1209 57.6084 28.3592 58.3108C29.616 58.9946 31.0115 59.3366 32.5455 59.3366ZM60.571 61L56.1351 54.7621C55.6361 54.8175 55.1186 54.8452 54.5826 54.8452H49.3704V61H47.3188V41.5931H54.5826C57.0592 41.5931 58.9999 42.1845 60.4046 43.3674C61.8093 44.5503 62.5117 46.1768 62.5117 48.2469C62.5117 49.7625 62.1235 51.047 61.3472 52.1006C60.5895 53.1356 59.499 53.8841 58.0758 54.3462L62.8166 61H60.571ZM54.5271 53.0986C56.4493 53.0986 57.9187 52.6735 58.9352 51.8233C59.9518 50.9731 60.4601 49.781 60.4601 48.2469C60.4601 46.6759 59.9518 45.4745 58.9352 44.6428C57.9187 43.7925 56.4493 43.3674 54.5271 43.3674H49.3704V53.0986H54.5271ZM101.348 50.9916C102.623 51.2688 103.603 51.8233 104.287 52.655C104.989 53.4683 105.34 54.5218 105.34 55.8156C105.34 57.479 104.721 58.7636 103.483 59.6692C102.263 60.5564 100.452 61 98.0488 61H89.1216V41.5931H97.4943C99.6568 41.5931 101.329 42.0274 102.512 42.8961C103.714 43.7648 104.314 44.9939 104.314 46.5834C104.314 47.6554 104.046 48.5703 103.51 49.3281C102.993 50.0674 102.272 50.6219 101.348 50.9916ZM91.1732 43.2843V50.3262H97.3557C98.9267 50.3262 100.137 50.0305 100.988 49.439C101.838 48.8291 102.263 47.9512 102.263 46.8052C102.263 45.6593 101.838 44.7906 100.988 44.1992C100.137 43.5892 98.9267 43.2843 97.3557 43.2843H91.1732ZM98.0211 59.3088C99.7585 59.3088 101.071 59.0131 101.958 58.4217C102.845 57.8302 103.289 56.9061 103.289 55.6492C103.289 53.228 101.533 52.0174 98.0211 52.0174H91.1732V59.3088H98.0211ZM117.841 61.1663C115.328 61.1663 113.368 60.4455 111.964 59.0039C110.559 57.5622 109.857 55.4644 109.857 52.7105V41.5931H111.908V52.6273C111.908 54.8822 112.417 56.5641 113.433 57.6731C114.45 58.7821 115.919 59.3366 117.841 59.3366C119.782 59.3366 121.261 58.7821 122.277 57.6731C123.294 56.5641 123.802 54.8822 123.802 52.6273V41.5931H125.798V52.7105C125.798 55.4644 125.096 57.5622 123.691 59.0039C122.305 60.4455 120.355 61.1663 117.841 61.1663ZM131.98 41.5931H139.882C141.933 41.5931 143.745 42.009 145.316 42.8407C146.887 43.6539 148.107 44.7999 148.975 46.2785C149.844 47.7386 150.278 49.4113 150.278 51.2966C150.278 53.1818 149.844 54.8637 148.975 56.3423C148.107 57.8025 146.887 58.9484 145.316 59.7801C143.745 60.5934 141.933 61 139.882 61H131.98V41.5931ZM139.771 59.2257C141.471 59.2257 142.959 58.893 144.234 58.2276C145.51 57.5437 146.499 56.6103 147.201 55.4274C147.903 54.2261 148.254 52.8491 148.254 51.2966C148.254 49.744 147.903 48.3763 147.201 47.1934C146.499 45.992 145.51 45.0586 144.234 44.3932C142.959 43.7094 141.471 43.3674 139.771 43.3674H134.032V59.2257H139.771ZM162.703 61.1663C160.19 61.1663 158.231 60.4455 156.826 59.0039C155.421 57.5622 154.719 55.4644 154.719 52.7105V41.5931H156.77V52.6273C156.77 54.8822 157.279 56.5641 158.295 57.6731C159.312 58.7821 160.781 59.3366 162.703 59.3366C164.644 59.3366 166.123 58.7821 167.139 57.6731C168.156 56.5641 168.664 54.8822 168.664 52.6273V41.5931H170.66V52.7105C170.66 55.4644 169.958 57.5622 168.553 59.0039C167.167 60.4455 165.217 61.1663 162.703 61.1663ZM190.095 61L185.659 54.7621C185.16 54.8175 184.642 54.8452 184.106 54.8452H178.894V61H176.843V41.5931H184.106C186.583 41.5931 188.524 42.1845 189.928 43.3674C191.333 44.5503 192.035 46.1768 192.035 48.2469C192.035 49.7625 191.647 51.047 190.871 52.1006C190.113 53.1356 189.023 53.8841 187.6 54.3462L192.34 61H190.095ZM184.051 53.0986C185.973 53.0986 187.442 52.6735 188.459 51.8233C189.476 50.9731 189.984 49.781 189.984 48.2469C189.984 46.6759 189.476 45.4745 188.459 44.6428C187.442 43.7925 185.973 43.3674 184.051 43.3674H178.894V53.0986H184.051Z" fill="white"/>
<path d="M77.4821 50.0992L71.1243 46.2269C70.842 46.0673 70.4431 46.4539 70.5965 46.7424L74.3707 53.2229L80.8512 56.997C80.9244 57.0236 81.0036 57.0285 81.0795 57.0111C81.1554 56.9938 81.2247 56.955 81.279 56.8993C81.3334 56.8436 81.3706 56.7734 81.3862 56.6972C81.4017 56.6209 81.395 56.5418 81.3667 56.4693L77.4821 50.0992ZM75.0273 52.554L76.8684 50.7129L79.6607 55.2787L75.0273 52.554Z" fill="white"/>
<path d="M75.7506 41.931C73.8086 41.931 71.9102 42.5069 70.2955 43.5858C68.6808 44.6647 67.4222 46.1983 66.6791 47.9924C65.9359 49.7866 65.7414 51.7609 66.1203 53.6656C66.4992 55.5703 67.4343 57.3198 68.8076 58.6931C70.1808 60.0663 71.9303 61.0014 73.835 61.3803C75.7397 61.7592 77.714 61.5647 79.5082 60.8215C81.3023 60.0784 82.8359 58.8198 83.9148 57.2051C84.9937 55.5904 85.5696 53.692 85.5696 51.75C85.5696 49.1458 84.5351 46.6484 82.6937 44.8069C80.8523 42.9655 78.3548 41.931 75.7506 41.931ZM76.3643 60.3109V58.8258H75.1369V60.3109C73.0786 60.1615 71.1429 59.2763 69.6836 57.817C68.2243 56.3578 67.3391 54.422 67.1897 52.3637H68.6748V51.1363H67.1897C67.3391 49.078 68.2243 47.1422 69.6836 45.683C71.1429 44.2237 73.0786 43.3385 75.1369 43.1891V44.6742H76.3643V43.1891C78.4226 43.3385 80.3584 44.2237 81.8176 45.683C83.2769 47.1422 84.1622 49.078 84.3115 51.1363H82.8264V52.3637H84.3115C84.1622 54.422 83.2769 56.3578 81.8176 57.817C80.3584 59.2763 78.4226 60.1615 76.3643 60.3109Z" fill="white"/>
</svg>
